<mxfile host="app.diagrams.net" agent="Mozilla/5.0 (Windows NT 10.0; Win64; x64) AppleWebKit/537.36 (KHTML, like Gecko) Chrome/136.0.0.0 Safari/537.36" version="27.0.6">
  <diagram name="Trang-1" id="HOVddwRZd860eQuQ6rHp">
    <mxGraphModel dx="1042" dy="527" grid="1" gridSize="10" guides="1" tooltips="1" connect="1" arrows="1" fold="1" page="1" pageScale="1" pageWidth="827" pageHeight="1169" math="0" shadow="0">
      <root>
        <mxCell id="0" />
        <mxCell id="1" parent="0" />
        <mxCell id="-dFCY_qEN_BsIYsLtPye-1" value="" style="rounded=0;whiteSpace=wrap;html=1;" vertex="1" parent="1">
          <mxGeometry x="120" y="80" width="120" height="60" as="geometry" />
        </mxCell>
        <mxCell id="-dFCY_qEN_BsIYsLtPye-15" style="edgeStyle=orthogonalEdgeStyle;rounded=0;orthogonalLoop=1;jettySize=auto;html=1;entryX=0.5;entryY=0;entryDx=0;entryDy=0;" edge="1" parent="1" source="-dFCY_qEN_BsIYsLtPye-2" target="-dFCY_qEN_BsIYsLtPye-6">
          <mxGeometry relative="1" as="geometry" />
        </mxCell>
        <mxCell id="-dFCY_qEN_BsIYsLtPye-2" value="" style="rounded=0;whiteSpace=wrap;html=1;" vertex="1" parent="1">
          <mxGeometry x="590" y="80" width="120" height="60" as="geometry" />
        </mxCell>
        <mxCell id="-dFCY_qEN_BsIYsLtPye-14" style="edgeStyle=orthogonalEdgeStyle;rounded=0;orthogonalLoop=1;jettySize=auto;html=1;entryX=0;entryY=0.5;entryDx=0;entryDy=0;" edge="1" parent="1" source="-dFCY_qEN_BsIYsLtPye-3" target="-dFCY_qEN_BsIYsLtPye-2">
          <mxGeometry relative="1" as="geometry" />
        </mxCell>
        <mxCell id="-dFCY_qEN_BsIYsLtPye-3" value="" style="rounded=0;whiteSpace=wrap;html=1;" vertex="1" parent="1">
          <mxGeometry x="360" y="80" width="120" height="60" as="geometry" />
        </mxCell>
        <mxCell id="-dFCY_qEN_BsIYsLtPye-18" style="edgeStyle=orthogonalEdgeStyle;rounded=0;orthogonalLoop=1;jettySize=auto;html=1;entryX=0.5;entryY=1;entryDx=0;entryDy=0;" edge="1" parent="1" source="-dFCY_qEN_BsIYsLtPye-4" target="-dFCY_qEN_BsIYsLtPye-1">
          <mxGeometry relative="1" as="geometry" />
        </mxCell>
        <mxCell id="-dFCY_qEN_BsIYsLtPye-4" value="" style="rounded=0;whiteSpace=wrap;html=1;" vertex="1" parent="1">
          <mxGeometry x="120" y="200" width="120" height="60" as="geometry" />
        </mxCell>
        <mxCell id="-dFCY_qEN_BsIYsLtPye-17" style="edgeStyle=orthogonalEdgeStyle;rounded=0;orthogonalLoop=1;jettySize=auto;html=1;entryX=1;entryY=0.5;entryDx=0;entryDy=0;" edge="1" parent="1" source="-dFCY_qEN_BsIYsLtPye-5" target="-dFCY_qEN_BsIYsLtPye-4">
          <mxGeometry relative="1" as="geometry" />
        </mxCell>
        <mxCell id="-dFCY_qEN_BsIYsLtPye-5" value="" style="rounded=0;whiteSpace=wrap;html=1;" vertex="1" parent="1">
          <mxGeometry x="360" y="200" width="120" height="60" as="geometry" />
        </mxCell>
        <mxCell id="-dFCY_qEN_BsIYsLtPye-16" style="edgeStyle=orthogonalEdgeStyle;rounded=0;orthogonalLoop=1;jettySize=auto;html=1;entryX=1;entryY=0.5;entryDx=0;entryDy=0;" edge="1" parent="1" source="-dFCY_qEN_BsIYsLtPye-6" target="-dFCY_qEN_BsIYsLtPye-5">
          <mxGeometry relative="1" as="geometry" />
        </mxCell>
        <mxCell id="-dFCY_qEN_BsIYsLtPye-6" value="" style="rounded=0;whiteSpace=wrap;html=1;" vertex="1" parent="1">
          <mxGeometry x="590" y="200" width="120" height="60" as="geometry" />
        </mxCell>
        <mxCell id="-dFCY_qEN_BsIYsLtPye-13" style="edgeStyle=orthogonalEdgeStyle;rounded=0;orthogonalLoop=1;jettySize=auto;html=1;entryX=0;entryY=0.5;entryDx=0;entryDy=0;" edge="1" parent="1" source="-dFCY_qEN_BsIYsLtPye-7" target="-dFCY_qEN_BsIYsLtPye-3">
          <mxGeometry relative="1" as="geometry" />
        </mxCell>
        <mxCell id="-dFCY_qEN_BsIYsLtPye-7" value="Lập kế hoạch" style="text;html=1;align=center;verticalAlign=middle;whiteSpace=wrap;rounded=0;" vertex="1" parent="1">
          <mxGeometry x="135" y="95" width="90" height="30" as="geometry" />
        </mxCell>
        <mxCell id="-dFCY_qEN_BsIYsLtPye-8" value="Phân tich - thiết kế" style="text;html=1;align=center;verticalAlign=middle;whiteSpace=wrap;rounded=0;" vertex="1" parent="1">
          <mxGeometry x="390" y="95" width="60" height="30" as="geometry" />
        </mxCell>
        <mxCell id="-dFCY_qEN_BsIYsLtPye-9" value="Phát triển MVC" style="text;html=1;align=center;verticalAlign=middle;whiteSpace=wrap;rounded=0;" vertex="1" parent="1">
          <mxGeometry x="620" y="95" width="60" height="30" as="geometry" />
        </mxCell>
        <mxCell id="-dFCY_qEN_BsIYsLtPye-10" value="Kiểm thử" style="text;html=1;align=center;verticalAlign=middle;whiteSpace=wrap;rounded=0;" vertex="1" parent="1">
          <mxGeometry x="620" y="215" width="60" height="30" as="geometry" />
        </mxCell>
        <mxCell id="-dFCY_qEN_BsIYsLtPye-11" value="Triển khai" style="text;html=1;align=center;verticalAlign=middle;whiteSpace=wrap;rounded=0;" vertex="1" parent="1">
          <mxGeometry x="390" y="215" width="60" height="30" as="geometry" />
        </mxCell>
        <mxCell id="-dFCY_qEN_BsIYsLtPye-12" value="Thu thập phản hồi" style="text;html=1;align=center;verticalAlign=middle;whiteSpace=wrap;rounded=0;" vertex="1" parent="1">
          <mxGeometry x="130" y="215" width="100" height="30" as="geometry" />
        </mxCell>
      </root>
    </mxGraphModel>
  </diagram>
</mxfile>
